<svg width="50" height="50" viewBox="0 0 50 50" fill="none" xmlns="http://www.w3.org/2000/svg">
<path d="M49.5653 27.6585C49.5653 27.6585 49.5866 27.6829 49.5745 27.7727C49.6182 28.483 49.7191 29.1032 49.7222 29.7239C49.7404 33.3232 49.7356 36.9226 49.7386 40.5219C49.2478 41.3588 48.5998 41.99 47.5039 41.9349C46.9539 41.9072 46.8163 42.1415 46.8249 42.6137C46.8397 43.4324 46.809 44.2518 46.7278 45.1782C46.5876 45.4565 46.5066 45.6244 46.448 45.7991C45.7098 47.9983 44.0074 49.4943 41.5652 49.828C29.7968 49.8234 18.1111 49.8214 6.42544 49.8277C6.15331 49.8278 5.88125 49.9194 5.56405 49.9761C5.48893 49.9893 5.4589 49.9946 5.42887 50C3.97705 49.9312 2.86117 49.2174 1.88297 48.2781C0.844911 47.2812 0.214673 46.0707 0 44.5661C0.0611617 43.9819 0.0901146 43.5186 0.0903564 43.0553C0.0945751 34.9067 0.0952906 26.7581 0.142207 18.5646C0.414502 17.8882 0.542543 17.2007 0.893622 16.64C1.31792 15.9624 1.93116 15.3922 2.46263 14.7755C2.46263 14.7755 2.48524 14.8039 2.53799 14.8067C3.60304 14.6474 4.62411 14.521 5.62151 14.2983C5.87171 14.2424 6.2699 13.7776 6.21762 13.6709C5.93809 13.1002 5.53739 12.5835 5.17858 12.0482C4.89567 11.2312 5.11022 10.5209 5.74462 9.84062C5.83023 9.76336 5.86197 9.73657 5.89614 9.71243C5.92353 9.6776 5.95093 9.64279 6.10639 9.58162C7.71561 9.02626 9.1997 8.50451 10.6747 7.96046C10.8964 7.87869 11.0758 7.69266 11.2748 7.55485C13.5595 6.68134 15.8444 5.80819 18.1289 4.9341C18.7963 4.67875 19.4626 4.42077 20.2178 4.17707C21.3081 3.84098 22.3123 3.49777 23.308 3.13343C23.4073 3.0971 23.4548 2.93216 23.5264 2.82691C23.5264 2.82691 23.5278 2.8379 23.5935 2.83943C25.0033 2.29806 26.3474 1.75515 27.6915 1.21225C28.4668 0.904004 29.2564 0.624566 30.0141 0.28108C31.297 -0.300545 32.4938 0.0155842 33.0218 1.27508C34.3411 4.42185 35.5861 7.59707 36.8448 10.7666C37.7145 12.9564 38.5574 15.1558 39.3593 17.4428C39.4572 17.7969 39.608 18.0591 39.7589 18.3214C39.7589 18.3214 39.7613 18.3426 39.7617 18.4052C39.8264 18.5146 39.8907 18.5614 39.955 18.6082C39.955 18.6082 40.0061 18.6068 40.0533 18.6805C41.1917 18.7909 42.2828 18.8308 43.3743 18.8521C43.4186 18.8529 43.4667 18.6769 43.5131 18.5833C43.5131 18.5833 43.5144 18.5997 43.568 18.5956C44.1026 18.2202 43.7397 17.9193 43.5238 17.5532C43.2848 17.4216 43.053 17.3422 42.8213 17.2628C42.792 17.2627 42.7627 17.2626 42.6764 17.1927C42.3488 17.0794 42.0782 17.0359 41.7819 16.9342C41.5321 16.0746 41.3079 15.273 41.0503 14.3517C42.0394 14.3517 42.8875 14.3517 43.7355 14.3517C44.273 14.4562 44.8105 14.5606 45.4043 14.7624C45.5175 14.9 45.5745 14.9404 45.6315 14.9807C45.6315 14.9807 45.6045 14.9731 45.6188 15.0189C45.8141 15.2493 45.995 15.4338 46.1759 15.6183C46.1759 15.6183 46.1511 15.6412 46.1557 15.6902C46.3154 16.5353 46.5855 17.3289 46.6043 18.1279C46.6633 20.6375 46.6212 23.1492 46.638 25.66C46.6398 25.9325 46.7704 26.2042 46.8412 26.4763C47.0763 26.5355 47.3114 26.5946 47.6644 26.6755C48.2173 26.8377 48.6521 26.978 49.087 27.1184C49.087 27.1184 49.0642 27.1313 49.0748 27.1673C49.1445 27.2332 49.2035 27.2632 49.2625 27.2932C49.2625 27.2932 49.2354 27.2865 49.2366 27.3338C49.347 27.4736 49.4561 27.5661 49.5653 27.6585ZM34.8643 30.6526C34.8349 30.7076 34.8054 30.7626 34.7892 30.8073C34.7892 30.8073 34.7889 30.8236 34.6641 30.7898C34.5192 30.8651 34.3405 30.9107 34.2346 31.0203C33.0214 32.275 32.6404 34.6361 33.4678 36.188C33.7277 36.6755 34.2039 37.0581 34.565 37.4947C34.565 37.4947 34.5746 37.481 34.5628 37.6104C34.7551 37.715 34.9475 37.8195 35.1197 37.9775C35.1197 37.9775 35.1315 37.9219 35.1347 38.0462C35.3549 38.1312 35.5752 38.2163 35.7786 38.3077C35.7786 38.3077 35.7775 38.2905 35.8215 38.3854C35.9211 38.4159 36.0208 38.4465 36.1137 38.4832C36.1137 38.4832 36.1199 38.4784 36.138 38.5377C36.157 38.5742 36.1829 38.6054 36.3591 38.6415C36.6821 38.7091 37.0052 38.7767 37.4381 38.9285C40.3153 38.9425 43.1925 38.9587 46.0697 38.9635C46.19 38.9637 46.3106 38.8576 46.5025 38.7599C46.5025 38.7599 46.5857 38.7654 46.7155 38.7176C46.7431 38.586 46.7948 38.4544 46.7947 38.3228C46.7944 35.5862 46.7882 32.8497 46.7997 29.9743C46.8444 29.3623 46.3841 29.4438 45.9904 29.4438C43.3624 29.4438 40.7343 29.4408 38.1063 29.4555C37.8424 29.457 37.5791 29.5697 37.3201 29.6168C37.3201 29.6168 37.3345 29.6217 37.2019 29.6158C37.0695 29.6178 36.9371 29.6197 36.6785 29.6304C36.283 29.8689 35.8874 30.1074 35.4838 30.343C35.4838 30.343 35.4775 30.3371 35.3778 30.3209C35.339 30.369 35.3002 30.4171 35.2611 30.4499C35.2611 30.4499 35.2761 30.4549 35.1577 30.4471C35.0942 30.5232 35.0307 30.5992 34.942 30.6652C34.942 30.6652 34.969 30.6613 34.8643 30.6526ZM11.5609 14.5315C11.5291 14.5808 11.4973 14.63 11.4654 14.6678C11.4654 14.6678 11.477 14.6712 11.3501 14.6745C10.8884 15.076 9.8421 14.9188 10.0962 16.0467C10.4422 16.8939 10.7881 17.741 11.2 18.6971C11.5584 18.7728 11.9167 18.914 12.2753 18.9146C19.9508 18.9274 27.6263 18.9288 35.3018 18.9092C35.6285 18.9084 35.9546 18.6852 36.2661 18.4467C35.8696 17.345 35.473 16.2433 35.1685 15.0753C35.1847 15.0241 35.2287 14.963 35.213 14.9229C34.2191 12.3741 33.2233 9.82587 32.2096 7.28415C32.1746 7.19631 31.9561 7.1749 31.6742 7.13725C30.7904 7.08925 29.9066 7.04127 29.0237 6.86315C28.7367 6.78662 28.4497 6.71009 28.1772 6.63039C28.1772 6.63039 28.1749 6.64441 28.1353 6.54424C28.0321 6.51688 27.9288 6.48952 27.8366 6.45487C27.8366 6.45487 27.8343 6.46745 27.7995 6.3803C27.74 6.36215 27.6805 6.34399 27.6405 6.32836C27.6405 6.32836 27.627 6.34203 27.6213 6.22488C27.1709 5.88918 27.0081 5.06646 26.0093 5.4727C25.6015 5.63583 25.198 5.80963 24.7851 5.96022C23.1431 6.55911 21.4958 7.14505 19.8549 7.74685C18.4957 8.24535 17.1428 8.75938 15.6574 9.26937C14.9166 9.52635 14.166 9.76125 13.4406 10.0532C13.2103 10.1459 12.9134 10.368 12.8762 10.5694C12.7057 11.492 12.6165 12.4282 12.495 13.3526C12.495 13.3526 12.5028 13.3505 12.381 13.3647C12.2678 13.5977 12.1546 13.8307 11.9997 14.0457C11.9997 14.0457 12.0445 14.0545 11.9386 14.0619C11.9182 14.1207 11.8979 14.1796 11.8713 14.1984C11.8713 14.1984 11.8892 14.2351 11.7738 14.2349C11.7298 14.3283 11.6858 14.4217 11.6381 14.5039C11.6381 14.5039 11.6503 14.5047 11.5609 14.5315ZM34.5804 27.308C34.5804 27.308 34.6404 27.2986 34.7316 27.1991C35.477 26.9793 36.2223 26.7595 37.0881 26.6145C38.8745 26.63 40.6608 26.6522 42.4471 26.654C42.7437 26.6542 43.0404 26.5648 43.4151 26.4899C43.4151 26.4899 43.4974 26.4805 43.6167 26.4033C43.6348 24.8976 43.6528 23.3919 43.5771 21.7869C43.3506 21.766 43.1242 21.7268 42.8977 21.7268C29.9963 21.7258 17.0949 21.7271 4.19342 21.7359C3.92126 21.7361 3.64917 21.8257 3.29952 21.9241C3.25863 21.9687 3.21773 22.0133 3.07242 22.1531C3.05523 22.2329 3.02296 22.3126 3.023 22.3924C3.02632 29.5615 3.03213 36.7306 3.02524 44.0369C3.00138 45.7528 4.27881 46.7194 6.11406 47.0232C17.4352 47.0229 28.7564 47.0225 40.2303 47.0306C40.8155 46.9658 41.4188 46.9656 41.9818 46.822C42.9793 46.5677 43.6952 45.6211 43.5212 44.7495C43.458 43.8045 43.3948 42.8595 43.2285 41.8252C42.2264 41.8084 41.2241 41.7697 40.2223 41.7809C39.1403 41.793 38.0588 41.8518 36.8504 41.8998C36.6012 41.8485 36.3519 41.7972 36.0818 41.6332C36.0248 41.5766 35.9772 41.4852 35.9093 41.4684C33.654 40.9112 32.1732 39.4421 30.9342 37.5388C30.7056 36.5135 30.3134 35.4913 30.2926 34.4623C30.2701 33.3486 30.5941 32.2285 30.872 31.0525C31.2401 30.4075 31.6082 29.7625 31.9771 29.1234C31.9771 29.1234 31.9707 29.1233 32.097 29.1283C32.5905 28.7541 33.0816 28.3771 33.5784 28.0069C33.8997 27.7675 34.2292 27.538 34.5577 27.3156C34.5577 27.3156 34.5476 27.3087 34.5804 27.308ZM7.33243 17.3219C7.03445 17.0989 6.74544 16.7045 6.43656 16.6898C5.85653 16.6623 5.25526 16.8197 4.68176 16.9671C4.30795 17.0632 3.84398 17.1929 3.6433 17.4598C3.38924 17.7976 3.36154 18.2901 3.23622 18.7159C3.54714 18.787 3.85611 18.9085 4.16936 18.9196C4.99841 18.9488 5.83117 18.9609 6.6586 18.9158C7.0016 18.8971 7.33479 18.715 7.76754 18.5292C7.62528 18.1684 7.48302 17.8075 7.33243 17.3219Z" fill="#1973FC"/>
</svg>
